<svg xmlns="http://www.w3.org/2000/svg" width="1800" height="1800" viewBox="0 0 1800 1800">
  <defs>
    <style>
      .cls-1 {
        fill-rule: evenodd;
      }
    </style>
  </defs>
  <path id="SVG_Export" data-name="SVG Export" class="cls-1" d="M243.277,1197.61s30.922,4.49,62.1,0c0,0,26.29.33,64.4-16.1,0,0,7.071-4.04,9.2-4.6,0,0,7.356-2.63,11.5-4.6s20.4-9.25,36.8-18.4c0,0,33.4-18.72,48.3-25.3s17.459-5.97,32.2-6.9c0,0,20.594-3.18,34.5-6.9a99.779,99.779,0,0,1,16.1-4.6s22.942-4.47,46,2.3c0,0,22.734,2.44,29.9-2.3,0,0,11.489-5.89,16.1-9.2,0,0,12.913-7.28,20.7-20.7,0,0,8.773-12.73,0-25.3s-22.636-31.71-39.1-41.4c0,0-6.772-4.52-27.6-4.6,0,0-11.244-5.78-29.9-11.5,0,0-16-3.68-20.7-4.6,0,0-2.067-5-27.6-36.8,0,0-4.868-9.949-13.8-34.5,0,0-3.392-11.628-20.7-43.7,0,0-.771-0.6-2.3-6.9,0,0-5.681-14.452-11.5-25.3a124.859,124.859,0,0,1-6.9-25.3s-4.151-2.378,4.6-9.2c0,0,6.487-6.965,34.5-13.8,0,0,66.272-5.36,133.4,6.9,0,0,8.783,1.947,13.8,4.6,0,0,2.921,3.423,36.8,9.2,0,0,4.493-.043,13.8,4.6,0,0,1.541,1.669,13.8,4.6,0,0,18.09,2.835,52.9,23,0,0,2.685,2.782,43.7,16.1,0,0,13.029,2.493,48.3,18.4,0,0,7.36,3.669,13.8,6.9,0,0,21.341,10.259,36.8,20.7s32.574,18.56,50.6,27.6,27.1,17.32,34.5,23,19.72,15.437,43.7,27.6,25.02,13.176,55.2,29.9c0,0,5.71,3.04,11.5,6.9,0,0,33.5,21.28,39.1,29.9,0,0,3.45,3.83,20.7,27.6,0,0,24.18,22.47,39.1,59.8,0,0,6.85,18.4,39.1,73.6,0,0,21.65,40.4,43.7,52.9,0,0,5.26,4.47,25.3,18.4,0,0,50.35,31.79,87.4,0,0,0,22.21-12.5,43.7-50.6,0,0,6.11-10.94,13.8-23,0,0,12.71-9.6,9.2-57.5-3.97-54-7.52-62.9-16.1-80.5,0,0,1.49-27.79,41.4-87.4,0,0,66.68-100.474,87.4-128.8s48.89-64.971,62.1-87.4c0,0,22.1-31,27.6-92,0,0,1.66-34.343-18.4-85.1,0,0-12.96-35.119-52.9-66.7,0,0-29.56-26.726-96.6-34.5,0,0-34.98-3.962-89.7,2.3,0,0-9.85,2.344-103.5,4.6,0,0-81.2,6.2-142.6,6.9,0,0-31.6,1.673-71.3,0,0,0-56.67-4.853-96.6-4.6,0,0-65.492,1.826-98.9,0,0,0-33.309-2.638-64.4,4.6,0,0-32.667,5.968-59.8,6.9,0,0-17.19-1.686-48.3,6.9,0,0-10.3,3.584-16.1,4.6,0,0-13.008-.582-29.9,6.9,0,0-27.514,14.84-43.7,18.4,0,0-26.071,6.391-82.8,41.4,0,0-6.226,3.3-9.2,4.6s-33.273,16.7-80.5,69c0,0-15.376,16.9-43.7,52.9,0,0,.3,2.664-23,9.2-21.1,5.92-31.2,12.2-49.276,21.286-10.388,5.222-21.882,9-41,22,0,0-16.072,8-47.723,32.614-34.481,26.812-35.809,30.281-64.4,59.8,0,0-19.991,19.649-29.9,34.5s-20.493,29.937-25.3,36.8c0,0-13.873,28.039-18.4,46-4.1,16.272-10.173,41.676-2.3,78.2,0,0,3.408,20.29,4.6,39.1,0,0,3.6,32.06,18.4,39.1,0,0,2.986.73,23,23,18.865,21,27.861,17.85,48.3,29.9C220.277,1193.01,221.3,1194.94,243.277,1197.61Z"/>
</svg>
